<svg width="25" height="24" viewBox="0 0 25 24" fill="none" xmlns="http://www.w3.org/2000/svg">
<path d="M17.8518 2H7.85181C5.09038 2 2.85181 4.23858 2.85181 7V17C2.85181 19.7614 5.09038 22 7.85181 22H17.8518C20.6132 22 22.8518 19.7614 22.8518 17V7C22.8518 4.23858 20.6132 2 17.8518 2Z" stroke="black" stroke-width="2" stroke-linecap="round" stroke-linejoin="round"/>
<path d="M16.8518 11.37C16.9752 12.2022 16.833 13.0522 16.4455 13.799C16.058 14.5458 15.4449 15.1514 14.6934 15.5297C13.9419 15.9079 13.0902 16.0396 12.2595 15.9059C11.4289 15.7723 10.6615 15.3801 10.0666 14.7852C9.47167 14.1902 9.07949 13.4229 8.94583 12.5922C8.81216 11.7615 8.94382 10.9099 9.32208 10.1584C9.70035 9.40685 10.3059 8.79374 11.0527 8.40624C11.7995 8.01874 12.6495 7.87658 13.4818 8C14.3307 8.12588 15.1166 8.52146 15.7235 9.1283C16.3303 9.73515 16.7259 10.5211 16.8518 11.37Z" stroke="black" stroke-width="2" stroke-linecap="round" stroke-linejoin="round"/>
<path d="M18.3518 6.5H18.3618" stroke="black" stroke-width="2" stroke-linecap="round" stroke-linejoin="round"/>
</svg>
