<svg width="25" height="24" viewBox="0 0 25 24" fill="none" xmlns="http://www.w3.org/2000/svg">
<path d="M16.8518 8C18.4431 8 19.9692 8.63214 21.0944 9.75736C22.2197 10.8826 22.8518 12.4087 22.8518 14V21H18.8518V14C18.8518 13.4696 18.6411 12.9609 18.266 12.5858C17.8909 12.2107 17.3822 12 16.8518 12C16.3214 12 15.8127 12.2107 15.4376 12.5858C15.0625 12.9609 14.8518 13.4696 14.8518 14V21H10.8518V14C10.8518 12.4087 11.4839 10.8826 12.6092 9.75736C13.7344 8.63214 15.2605 8 16.8518 8Z" stroke="black" stroke-width="2" stroke-linecap="round" stroke-linejoin="round"/>
<path d="M6.85181 9H2.85181V21H6.85181V9Z" stroke="black" stroke-width="2" stroke-linecap="round" stroke-linejoin="round"/>
<path d="M4.85181 6C5.95638 6 6.85181 5.10457 6.85181 4C6.85181 2.89543 5.95638 2 4.85181 2C3.74724 2 2.85181 2.89543 2.85181 4C2.85181 5.10457 3.74724 6 4.85181 6Z" stroke="black" stroke-width="2" stroke-linecap="round" stroke-linejoin="round"/>
</svg>
